<svg xmlns="http://www.w3.org/2000/svg" width="280" height="74" viewBox="0 0 280 74"><g fill="#FFF"><path d="M280 10.57C280 4.71 275.383 0 269.588 0c-5.678 0-10.295 4.71-10.295 10.57 0 5.858 4.617 10.625 10.295 10.625 5.795 0 10.412-4.767 10.412-10.626zm-10.412 7.667c-3.986 0-7.054-3.39-7.054-7.668 0-4.25 3.07-7.615 7.054-7.615 4.074 0 7.2 3.36 7.2 7.61 0 4.28-3.126 7.67-7.2 7.67z"/><path d="M272.37 11.43v-.056c.49-.144 1.664-.948 1.664-2.556 0-2.01-1.348-3.303-3.5-3.303h-4.673v9.965h3.1v-3.388h.804l1.405 3.388h3.385l-1.807-3.475c-.258-.49-.372-.574-.372-.574zm-2.638-1.407h-.774V7.64h.83c.69 0 1.092.372 1.092 1.177 0 .775-.403 1.206-1.148 1.206z"/><ellipse cx="51.089" cy="10.808" rx="7.885" ry="7.9"/><path d="M59.292 23.917h-36.24v-2.374c0-4.657 4.65-4.75 7.02-4.75 2.752 0 3.985.283 3.985.283V4.152s-2.466-.38-5.787-.38c-7.59 0-21.63 2.09-21.63 18.152v1.994H0v11.88h6.64V60.98H.476v11.88h29.788V60.98h-7.21V35.798H42.88V60.98h-6.166v11.88H65.46V60.98h-6.17V23.917zm61.71 0H95.008v11.88h4.363L93.78 53.475c-1.044 2.945-1.328 6.462-1.328 6.462h-.38s-.285-3.518-1.328-6.462l-5.596-17.677h4.363v-11.88h-26v11.88h5.502L82.58 72.86h19.354L115.5 35.8h5.502V23.92zm48.108 22.525c0-13.592-8.158-23.663-22.768-23.663-15.747 0-25.424 11.21-25.424 25.56 0 13.02 9.392 25.66 26.847 25.66 13.187 0 21.06-6.845 21.06-6.845L162.85 55.75s-6.55 4.658-13.76 4.658c-5.217 0-10.15-2.757-11.385-9.028h31.022s.38-3.326.38-4.94zm-31.023-4.086c.856-3.804 3.133-7.224 7.875-7.224 3.606 0 6.167 3.326 6.167 7.224h-14.046zm100.606-7.13h-.188s.188-.95.188-2.47v-2.564c0-4.467-2.466-6.275-6.926-6.275h-15.463v11.88h4.556c1.325 0 2.084.76 2.084 2.092v23.09h-6.64v11.88h29.694V60.98h-6.64v-7.126c0-8.933 4.364-14.73 13.47-14.73 1.994 0 3.32.284 3.32.284V23.255s-.947-.192-1.896-.192c-7.307 0-13.47 5.513-15.56 12.164zm-43.5 0H195s.193-.95.193-2.47v-2.564c0-4.467-2.47-6.275-6.928-6.275h-15.463v11.88h4.555c1.328 0 2.086.76 2.086 2.092v23.09h-6.64v11.88h29.693V60.98h-6.64v-7.126c0-8.933 4.363-14.73 13.47-14.73 1.992 0 3.32.284 3.32.284V23.255s-.946-.192-1.896-.192c-7.305 0-13.473 5.513-15.557 12.164z"/></g></svg>